<svg width="28.697021" height="28.398193" viewBox="0 0 28.697 28.3982" fill="none" xmlns="http://www.w3.org/2000/svg" xmlns:xlink="http://www.w3.org/1999/xlink">
	<desc>
			Created with Pixso.
	</desc>
	<defs/>
	<mask id="mask_2_25" fill="white">
		<path id="Fill 1" d="M0.5 14.1992C0.5 21.7524 6.7124 27.8982 14.3479 27.8982C21.9846 27.8982 28.1968 21.7524 28.1968 14.1992C28.1968 6.64575 21.9846 0.500244 14.3479 0.500244C6.7124 0.500244 0.5 6.64575 0.5 14.1992ZM1.71729 14.1992C1.71729 7.30933 7.38306 1.70459 14.3479 1.70459C21.3125 1.70459 26.9795 7.30933 26.9795 14.1992C26.9795 21.0889 21.3125 26.6938 14.3479 26.6938C7.38306 26.6938 1.71729 21.0889 1.71729 14.1992Z" clip-rule="evenodd" fill="" fill-opacity="1.000000" fill-rule="evenodd"/>
	</mask>
	<path id="Fill 1" d="M0.5 14.1992C0.5 21.7524 6.7124 27.8982 14.3479 27.8982C21.9846 27.8982 28.1968 21.7524 28.1968 14.1992C28.1968 6.64575 21.9846 0.500244 14.3479 0.500244C6.7124 0.500244 0.5 6.64575 0.5 14.1992ZM1.71729 14.1992C1.71729 7.30933 7.38306 1.70459 14.3479 1.70459C21.3125 1.70459 26.9795 7.30933 26.9795 14.1992C26.9795 21.0889 21.3125 26.6938 14.3479 26.6938C7.38306 26.6938 1.71729 21.0889 1.71729 14.1992Z" clip-rule="evenodd" fill="#007397" fill-opacity="1.000000" fill-rule="evenodd" mask="url(#mask_2_25)"/>
	<path id="Fill 1" d="M1 14.1992C1 17.8367 2.3042 20.9456 4.91235 23.5256C7.52197 26.1072 10.667 27.3982 14.3479 27.3982C18.0291 27.3982 21.1746 26.1072 23.7844 23.5256C26.3928 20.9456 27.6968 17.8369 27.6968 14.1992C27.6968 10.5615 26.3928 7.45264 23.7844 4.87256C21.1746 2.29102 18.0291 1.00024 14.3479 1.00024C10.667 1.00024 7.52197 2.29102 4.91235 4.87256C2.3042 7.45288 1 10.5615 1 14.1992ZM0 14.1992C0 10.2834 1.40308 6.9375 4.20898 4.16162C7.01343 1.38745 10.3931 0.000244141 14.3479 0.000244141C18.3032 0.000244141 21.6831 1.38745 24.4878 4.16162C27.2939 6.9375 28.6968 10.2832 28.6968 14.1992C28.6968 18.115 27.2939 21.4609 24.4878 24.2366C21.6831 27.011 18.3032 28.3982 14.3479 28.3982C10.3931 28.3982 7.01343 27.011 4.20898 24.2366C1.40308 21.4607 0 18.115 0 14.1992ZM1.21729 14.1992C1.21729 10.6152 2.50122 7.55298 5.06909 5.0127C7.6355 2.47388 10.7285 1.20459 14.3479 1.20459C17.9673 1.20459 21.0603 2.47388 23.627 5.0127C26.1953 7.55298 27.4795 10.6152 27.4795 14.1992C27.4795 17.7832 26.1953 20.8452 23.627 23.3857C21.0603 25.9243 17.9673 27.1938 14.3479 27.1938C10.7285 27.1938 7.6355 25.9243 5.06909 23.3855C2.50122 20.8455 1.21729 17.7832 1.21729 14.1992ZM2.21729 14.1992C2.21729 17.5049 3.40234 20.3301 5.77246 22.6748C8.14404 25.0208 11.0024 26.1938 14.3479 26.1938C17.6934 26.1938 20.552 25.0208 22.9238 22.6746C25.2942 20.3301 26.4795 17.5049 26.4795 14.1992C26.4795 10.8936 25.2942 8.06836 22.9238 5.72363C20.552 3.37769 17.6934 2.20459 14.3479 2.20459C11.0024 2.20459 8.14404 3.37769 5.77246 5.72363C3.40234 8.06812 2.21729 10.8933 2.21729 14.1992Z" fill="#007397" fill-opacity="1.000000" fill-rule="nonzero"/>
	<mask id="mask_2_28" fill="white">
		<path id="Fill 3" d="M6.08057 14.1992C6.08057 21.7524 9.78882 27.8982 14.3479 27.8982C18.9058 27.8982 22.6128 21.7524 22.6128 14.1992C22.6128 6.64575 18.9058 0.500244 14.3479 0.500244C9.78882 0.500244 6.08057 6.64575 6.08057 14.1992ZM7.29785 14.1992C7.29785 7.30933 10.4607 1.70459 14.3479 1.70459C18.2339 1.70459 21.3953 7.30933 21.3953 14.1992C21.3953 21.0889 18.2339 26.6938 14.3479 26.6938C10.4607 26.6938 7.29785 21.0889 7.29785 14.1992Z" clip-rule="evenodd" fill="" fill-opacity="1.000000" fill-rule="evenodd"/>
	</mask>
	<path id="Fill 3" d="M6.08057 14.1992C6.08057 21.7524 9.78882 27.8982 14.3479 27.8982C18.9058 27.8982 22.6128 21.7524 22.6128 14.1992C22.6128 6.64575 18.9058 0.500244 14.3479 0.500244C9.78882 0.500244 6.08057 6.64575 6.08057 14.1992ZM7.29785 14.1992C7.29785 7.30933 10.4607 1.70459 14.3479 1.70459C18.2339 1.70459 21.3953 7.30933 21.3953 14.1992C21.3953 21.0889 18.2339 26.6938 14.3479 26.6938C10.4607 26.6938 7.29785 21.0889 7.29785 14.1992Z" clip-rule="evenodd" fill="#007397" fill-opacity="1.000000" fill-rule="evenodd" mask="url(#mask_2_28)"/>
	<path id="Fill 3" d="M6.58057 14.1992C6.58057 16.012 6.79224 17.7463 7.21558 19.4023C7.62231 20.9932 8.19458 22.3999 8.93262 23.6228C9.65967 24.8276 10.4888 25.7568 11.4199 26.4106C12.3577 27.0688 13.3337 27.3982 14.3479 27.3982C15.3618 27.3982 16.3374 27.0688 17.2747 26.4106C18.2058 25.7568 19.0347 24.8276 19.7615 23.6228C20.499 22.3999 21.0713 20.9932 21.4778 19.4023C21.9011 17.7466 22.1128 16.012 22.1128 14.1992C22.1128 12.3862 21.9011 10.6519 21.4778 8.99585C21.0713 7.40527 20.499 5.99829 19.7615 4.77539C19.0347 3.5708 18.2058 2.64136 17.2747 1.98779C16.3374 1.32935 15.3618 1.00024 14.3479 1.00024C13.3337 1.00024 12.3577 1.32935 11.4199 1.98779C10.4888 2.6416 9.65967 3.5708 8.93262 4.77563C8.19458 5.99829 7.62231 7.40527 7.21558 8.99609C6.79224 10.6519 6.58057 12.3862 6.58057 14.1992ZM5.58057 14.1992C5.58057 12.3025 5.80273 10.4854 6.24683 8.74829C6.67773 7.06226 7.28784 5.56592 8.07642 4.25879C8.87622 2.93359 9.79907 1.90381 10.8455 1.16919C11.3857 0.790039 11.9448 0.502197 12.5227 0.305664C13.1218 0.102051 13.73 0.000244141 14.3479 0.000244141C14.9656 0.000244141 15.5737 0.102051 16.1726 0.305664C16.7505 0.502197 17.3093 0.790039 17.8494 1.16943C18.8955 1.90381 19.8181 2.93384 20.6177 4.25903C21.406 5.56592 22.0159 7.06226 22.4468 8.74829C22.8906 10.4854 23.1128 12.3025 23.1128 14.1992C23.1128 16.0959 22.8906 17.9128 22.4468 19.6499C22.0159 21.3359 21.406 22.8325 20.6177 24.1394C19.8181 25.4646 18.8955 26.4944 17.8494 27.229C17.3093 27.6084 16.7505 27.8962 16.1726 28.0928C15.5737 28.2964 14.9656 28.3982 14.3479 28.3982C13.73 28.3982 13.1218 28.2964 12.5227 28.0928C11.9448 27.8962 11.3857 27.6084 10.8455 27.229C9.79907 26.4944 8.87622 25.4646 8.07642 24.1394C7.28784 22.8325 6.67773 21.3359 6.24683 19.6501C5.80273 17.9128 5.58057 16.0959 5.58057 14.1992ZM6.79785 14.1992C6.79785 12.468 6.98755 10.8096 7.3667 9.22388C7.73462 7.68408 8.25586 6.31689 8.92969 5.12256C9.61499 3.90796 10.4072 2.96313 11.3062 2.28809C11.7732 1.9375 12.2571 1.67114 12.7581 1.48901C13.2795 1.29932 13.8093 1.20459 14.3479 1.20459C14.8862 1.20459 15.416 1.29932 15.9373 1.48901C16.438 1.67114 16.9219 1.9375 17.3887 2.28809C18.2874 2.96313 19.0793 3.90796 19.7644 5.12256C20.438 6.31714 20.959 7.68408 21.3269 9.22412C21.7058 10.8096 21.8953 12.468 21.8953 14.1992C21.8953 15.9302 21.7058 17.5886 21.3269 19.1743C20.959 20.7141 20.438 22.0813 19.7644 23.2759C19.0793 24.4902 18.2874 25.4351 17.3887 26.1101C16.9219 26.4609 16.438 26.7273 15.9373 26.9094C15.416 27.0989 14.8862 27.1938 14.3479 27.1938C13.8093 27.1938 13.2795 27.0989 12.7581 26.9094C12.2571 26.7273 11.7732 26.4609 11.3062 26.1101C10.4072 25.4351 9.61499 24.4905 8.92969 23.2759C8.25586 22.0813 7.73462 20.7141 7.3667 19.1743C6.98755 17.5886 6.79785 15.9302 6.79785 14.1992ZM7.79785 14.1992C7.79785 15.8518 7.97827 17.4326 8.33911 18.9419C8.68555 20.3906 9.17261 21.6714 9.80078 22.7844C10.4175 23.8774 11.1194 24.7195 11.9067 25.3105C12.6909 25.8994 13.5046 26.1938 14.3479 26.1938C15.1909 26.1938 16.0042 25.8994 16.7881 25.3105C17.5752 24.7195 18.2769 23.8774 18.8933 22.7844C19.521 21.6716 20.0081 20.3906 20.3542 18.9419C20.7151 17.4326 20.8953 15.8518 20.8953 14.1992C20.8953 12.5466 20.7151 10.9658 20.3542 9.45654C20.0081 8.00757 19.521 6.72681 18.8933 5.61377C18.2769 4.521 17.5752 3.67896 16.7881 3.08765C16.0042 2.49902 15.1909 2.20459 14.3479 2.20459C13.5046 2.20459 12.6909 2.49902 11.9067 3.08789C11.1194 3.67896 10.4175 4.521 9.80078 5.61377C9.17261 6.72681 8.68555 8.00781 8.33911 9.45654C7.97827 10.9658 7.79785 12.5466 7.79785 14.1992Z" fill="#007397" fill-opacity="1.000000" fill-rule="nonzero"/>
	<mask id="mask_2_31" fill="white">
		<path id="Fill 5" d="M13.7393 27.2957C13.7393 27.6294 14.012 27.8979 14.3479 27.8979C21.9846 27.8979 28.197 21.7522 28.197 14.199C28.197 6.64551 21.9846 0.5 14.3479 0.5C14.012 0.5 13.7393 0.769775 13.7393 1.10205L13.7393 27.2957ZM14.9565 26.6802L14.9565 1.71875C21.6401 2.03418 26.9795 7.51123 26.9795 14.1987C26.9795 20.8875 21.6401 26.3647 14.9565 26.6802Z" clip-rule="evenodd" fill="" fill-opacity="1.000000" fill-rule="evenodd"/>
	</mask>
	<path id="Fill 5" d="M13.7393 27.2957C13.7393 27.6294 14.012 27.8979 14.3479 27.8979C21.9846 27.8979 28.197 21.7522 28.197 14.199C28.197 6.64551 21.9846 0.5 14.3479 0.5C14.012 0.5 13.7393 0.769775 13.7393 1.10205L13.7393 27.2957ZM14.9565 26.6802L14.9565 1.71875C21.6401 2.03418 26.9795 7.51123 26.9795 14.1987C26.9795 20.8875 21.6401 26.3647 14.9565 26.6802Z" clip-rule="evenodd" fill="#007397" fill-opacity="1.000000" fill-rule="evenodd" mask="url(#mask_2_31)"/>
	<path id="Fill 5" d="M14.2393 27.2957C14.2393 27.323 14.2493 27.3467 14.269 27.3662C14.2903 27.3872 14.3167 27.3979 14.3479 27.3979C16.1562 27.3979 17.887 27.0513 19.5403 26.3584C21.137 25.6892 22.5518 24.7449 23.7847 23.5254C25.0171 22.3064 25.9712 20.9075 26.6475 19.3291C27.3472 17.6953 27.697 15.9854 27.697 14.199C27.697 12.4126 27.3472 10.7024 26.6475 9.06885C25.9712 7.49023 25.0171 6.09155 23.7847 4.87231C22.5518 3.65283 21.137 2.7085 19.5403 2.03931C17.887 1.34644 16.1562 1 14.3479 1C14.3169 1 14.2908 1.01074 14.2693 1.03198C14.2493 1.05176 14.2393 1.0752 14.2393 1.10205L14.2393 27.2957ZM13.2393 27.2957L13.2393 1.10205C13.2393 0.952148 13.2686 0.808594 13.3274 0.671143C13.3838 0.539062 13.4634 0.422363 13.5659 0.321045C13.6682 0.219971 13.7854 0.141602 13.918 0.0861816C14.0552 0.0288086 14.1985 0 14.3479 0C16.2903 0 18.1499 0.372314 19.9268 1.11719C20.7808 1.4751 21.593 1.91162 22.3638 2.42725C23.1272 2.93774 23.8352 3.51587 24.4878 4.16138C25.1406 4.80713 25.7251 5.50757 26.2415 6.26294C26.7629 7.02588 27.2046 7.82983 27.5667 8.67505C28.3203 10.4346 28.697 12.2756 28.697 14.199C28.697 16.1221 28.3203 17.9634 27.5667 19.7229C27.2046 20.5681 26.7629 21.3721 26.2415 22.1348C25.7251 22.8901 25.1406 23.5906 24.4878 24.2363C23.8352 24.8821 23.1272 25.46 22.3638 25.9707C21.593 26.4861 20.7808 26.9229 19.9268 27.2808C18.1499 28.0254 16.2903 28.3979 14.3479 28.3979C14.1987 28.3979 14.0554 28.3694 13.9185 28.312C13.7859 28.2568 13.6685 28.1785 13.5662 28.0776C13.4634 27.9761 13.3838 27.8594 13.3274 27.7271C13.2686 27.5896 13.2393 27.4458 13.2393 27.2957ZM14.4565 26.6802L14.4565 1.19458L14.9802 1.21924C16.6892 1.2998 18.3169 1.6958 19.8638 2.40698C21.3625 3.09644 22.686 4.03442 23.834 5.22168C24.9846 6.41187 25.8743 7.76465 26.5027 9.28027C27.1541 10.8506 27.4795 12.4902 27.4795 14.1987C27.4795 15.9077 27.1541 17.5474 26.5027 19.1179C25.8743 20.6338 24.9846 21.9868 23.834 23.177C22.686 24.3643 21.3628 25.3025 19.8638 25.9917C18.3169 26.7029 16.6892 27.0989 14.9802 27.1797L14.4565 27.2043L14.4565 26.6802ZM15.4565 26.6802L14.9565 26.6802L14.9331 26.1807C16.5125 26.1062 18.0168 25.7402 19.446 25.0833C20.8311 24.4463 22.0542 23.5791 23.115 22.4819C24.1775 21.3828 24.999 20.1338 25.5791 18.7349C26.1794 17.2871 26.4795 15.7749 26.4795 14.1987C26.4795 12.6228 26.1794 11.1111 25.5791 9.66333C24.999 8.26465 24.1777 7.01587 23.115 5.91675C22.0542 4.81958 20.8311 3.95264 19.446 3.31567C18.0168 2.65845 16.5125 2.29272 14.9331 2.21802L14.9565 1.71875L15.4565 1.71875L15.4565 26.6802Z" fill="#007397" fill-opacity="1.000000" fill-rule="nonzero"/>
	<mask id="mask_2_34" fill="white">
		<path id="Fill 8" d="M1.96851 19.4175L26.7241 19.4175C26.9773 19.4175 27.2036 19.262 27.2937 19.0283C27.8928 17.4592 28.197 15.8347 28.197 14.1992C28.197 12.5649 27.8928 10.9392 27.2937 9.36865C27.2036 9.13501 26.9773 8.97974 26.7241 8.97974L1.97217 8.97974C1.71875 8.97974 1.49243 9.13379 1.40234 9.36865C0.803467 10.9343 0.500244 12.5588 0.500244 14.1992C0.500244 15.8359 0.802246 17.4604 1.39868 19.0273C1.48755 19.262 1.71509 19.4175 1.96851 19.4175ZM26.2969 18.2131L2.39697 18.2131C1.94531 16.9041 1.71753 15.5552 1.71753 14.1992C1.71753 12.8408 1.94653 11.4919 2.39941 10.1841L26.2957 10.1841C26.7495 11.4956 26.9797 12.8442 26.9797 14.1992C26.9797 15.554 26.7495 16.9028 26.2969 18.2131Z" clip-rule="evenodd" fill="" fill-opacity="1.000000" fill-rule="evenodd"/>
	</mask>
	<path id="Fill 8" d="M1.96851 19.4175L26.7241 19.4175C26.9773 19.4175 27.2036 19.262 27.2937 19.0283C27.8928 17.4592 28.197 15.8347 28.197 14.1992C28.197 12.5649 27.8928 10.9392 27.2937 9.36865C27.2036 9.13501 26.9773 8.97974 26.7241 8.97974L1.97217 8.97974C1.71875 8.97974 1.49243 9.13379 1.40234 9.36865C0.803467 10.9343 0.500244 12.5588 0.500244 14.1992C0.500244 15.8359 0.802246 17.4604 1.39868 19.0273C1.48755 19.262 1.71509 19.4175 1.96851 19.4175ZM26.2969 18.2131L2.39697 18.2131C1.94531 16.9041 1.71753 15.5552 1.71753 14.1992C1.71753 12.8408 1.94653 11.4919 2.39941 10.1841L26.2957 10.1841C26.7495 11.4956 26.9797 12.8442 26.9797 14.1992C26.9797 15.554 26.7495 16.9028 26.2969 18.2131Z" clip-rule="evenodd" fill="#007397" fill-opacity="1.000000" fill-rule="evenodd" mask="url(#mask_2_34)"/>
	<path id="Fill 8" d="M1.96851 18.9175L26.7241 18.9175C26.7751 18.9175 26.8096 18.8945 26.8274 18.8486C27.4072 17.3293 27.697 15.7795 27.697 14.1992C27.697 12.6191 27.407 11.0686 26.8267 9.54688C26.8093 9.5022 26.7751 9.47974 26.7241 9.47974L1.97217 9.47974C1.9209 9.47974 1.88647 9.50244 1.86914 9.54785C1.28979 11.062 1.00024 12.6125 1.00024 14.1992C1.00024 15.7834 1.28882 17.3335 1.86597 18.8494C1.88306 18.8948 1.91724 18.9175 1.96851 18.9175ZM1.96851 19.9175C1.73853 19.9175 1.52905 19.8525 1.3396 19.7231C1.14868 19.5925 1.0127 19.4199 0.931396 19.2051C0.310547 17.5747 0.000244141 15.906 0.000244141 14.1992C0.000244141 12.4893 0.312012 10.8193 0.935547 9.1897C1.01782 8.9751 1.15405 8.80273 1.34424 8.6731C1.5332 8.54419 1.74243 8.47974 1.97217 8.47974L26.7241 8.47974C26.9536 8.47974 27.1631 8.54443 27.3523 8.67383C27.542 8.80347 27.6782 8.97583 27.761 9.19043C28.385 10.8269 28.697 12.4963 28.697 14.1992C28.697 15.9023 28.3848 17.572 27.7603 19.2083C27.678 19.4219 27.542 19.5938 27.3523 19.7234C27.1631 19.8528 26.9536 19.9175 26.7241 19.9175L1.96851 19.9175ZM26.2969 18.7131L2.04053 18.7131L1.92432 18.3762C1.45312 17.0107 1.21753 15.6184 1.21753 14.1992C1.21753 12.7788 1.4541 11.386 1.927 10.0205L2.04346 9.68408L26.6516 9.68408L26.7681 10.0205C27.2424 11.3909 27.4797 12.7837 27.4797 14.1992C27.4797 15.6138 27.2429 17.0061 26.7693 18.3765L26.6531 18.7131L26.2969 18.7131ZM26.2969 17.7131L26.2969 18.2131L25.8242 18.0498C26.2612 16.7854 26.4797 15.5017 26.4797 14.1992C26.4797 12.8958 26.2607 11.6121 25.823 10.3477L26.2957 10.1841L26.2957 10.6841L2.39941 10.6841L2.39941 10.1841L2.87183 10.3477C2.43579 11.6072 2.21753 12.8911 2.21753 14.1992C2.21753 15.5066 2.43506 16.7903 2.86963 18.05L2.39697 18.2131L2.39697 17.7131L26.2969 17.7131Z" fill="#007397" fill-opacity="1.000000" fill-rule="nonzero"/>
</svg>
